<svg xmlns="http://www.w3.org/2000/svg" width="16" height="16" viewBox="0 0 16 16"><path d="M9.333,4.25V0H1C.446,0,0,.334,0,.75v14.5c0,.416.446.75,1,.75H15c.554,0,1-.334,1-.75V5H10.333C9.783,5,9.333,4.663,9.333,4.25ZM12,11.625c0,.206-.225.375-.5.375h-7c-.275,0-.5-.169-.5-.375v-.25c0-.206.225-.375.5-.375h7c.275,0,.5.169.5.375Zm0-2c0,.206-.225.375-.5.375h-7c-.275,0-.5-.169-.5-.375v-.25C4,9.169,4.225,9,4.5,9h7c.275,0,.5.169.5.375Zm0-2.25v.25c0,.206-.225.375-.5.375h-7C4.225,8,4,7.831,4,7.625v-.25C4,7.169,4.225,7,4.5,7h7C11.775,7,12,7.169,12,7.375Zm4-3.566V4H10.667V0h.254a1.19,1.19,0,0,1,.708.219l4.079,3.063A.669.669,0,0,1,16,3.809Z" fill="#fff"/></svg>