<svg xmlns="http://www.w3.org/2000/svg" xmlns:xlink="http://www.w3.org/1999/xlink" width="25" height="25" viewBox="0 0 25 25"><defs><clipPath id="a"><rect width="25" height="25" transform="translate(120 263)" fill="#fff" stroke="#707070" stroke-width="1"/></clipPath></defs><g transform="translate(-120 -263)" clip-path="url(#a)"><g transform="translate(120 267.262)"><path d="M24.293,23.437H.426A.426.426,0,0,1,0,23.011V7.668a.426.426,0,0,1,.426-.426H24.294a.426.426,0,0,1,.426.426V23.011A.426.426,0,0,1,24.293,23.437Z" transform="translate(0 -7.241)" fill="#73af00"/><path d="M14.2,11.048,5.218,16.516a.426.426,0,0,0,0,.728L14.2,22.712a.426.426,0,0,0,.443,0l8.983-5.468a.426.426,0,0,0,0-.728l-8.983-5.468A.426.426,0,0,0,14.2,11.048Z" transform="translate(-2.063 -8.782)" fill="#ffe15a"/><circle cx="3.41" cy="3.41" r="3.41" transform="translate(8.95 4.688)" fill="#41479b"/><g transform="translate(9.067 6.35)"><path d="M15.772,18.034a3.385,3.385,0,0,0-.367.873,8.835,8.835,0,0,1,6.466,2.113,3.385,3.385,0,0,0,.222-.943A9.738,9.738,0,0,0,15.772,18.034Z" transform="translate(-15.405 -18.031)" fill="#f5f5f5"/><path d="M20.9,22.958l.091.272.287,0a.039.039,0,0,1,.023.07l-.231.17.087.274a.039.039,0,0,1-.059.043l-.233-.167-.233.167a.039.039,0,0,1-.059-.043l.087-.274-.231-.17a.039.039,0,0,1,.023-.07l.287,0,.091-.272A.039.039,0,0,1,20.9,22.958Z" transform="translate(-17.464 -20.047)" fill="#f5f5f5"/><path d="M22.987,24.165l.039.117h.124a.017.017,0,0,1,.01.03l-.1.073.037.118a.017.017,0,0,1-.026.019l-.1-.072-.1.072a.017.017,0,0,1-.026-.019l.037-.118-.1-.073a.017.017,0,0,1,.01-.03h.124l.039-.117A.017.017,0,0,1,22.987,24.165Z" transform="translate(-18.438 -20.55)" fill="#f5f5f5"/><path d="M20.273,22.09l.039.117h.124a.017.017,0,0,1,.01.03l-.1.073.037.118a.017.017,0,0,1-.026.019l-.1-.072-.1.072a.017.017,0,0,1-.026-.019l.037-.118-.1-.073a.017.017,0,0,1,.01-.03H20.2l.039-.117A.017.017,0,0,1,20.273,22.09Z" transform="translate(-17.321 -19.696)" fill="#f5f5f5"/><path d="M16.6,21.849l.039.117h.124a.017.017,0,0,1,.01.03l-.1.073.037.118a.017.017,0,0,1-.026.019l-.1-.072-.1.072a.017.017,0,0,1-.026-.019l.037-.118-.1-.073a.017.017,0,0,1,.01-.03h.124l.039-.117A.017.017,0,0,1,16.6,21.849Z" transform="translate(-15.809 -19.597)" fill="#f5f5f5"/><path d="M19.673,24.1l.039.117h.124a.017.017,0,0,1,.01.03l-.1.073.037.118a.017.017,0,0,1-.026.019l-.1-.072-.1.072a.017.017,0,0,1-.026-.019l.037-.118-.1-.073a.017.017,0,0,1,.01-.03H19.6l.039-.117A.017.017,0,0,1,19.673,24.1Z" transform="translate(-17.074 -20.522)" fill="#f5f5f5"/><path d="M18.008,21.712l.032.1h.1a.014.014,0,0,1,.008.025l-.081.06.03.1a.014.014,0,0,1-.021.015l-.082-.059L17.913,22a.014.014,0,0,1-.021-.015l.03-.1-.081-.06a.014.014,0,0,1,.008-.025h.1l.032-.1A.014.014,0,0,1,18.008,21.712Z" transform="translate(-16.405 -19.541)" fill="#f5f5f5"/><path d="M23.131,18.35l.04.12H23.3a.017.017,0,0,1,.01.031l-.1.075.038.12a.017.017,0,0,1-.026.019l-.1-.073-.1.073a.017.017,0,0,1-.026-.019l.038-.12-.1-.075a.017.017,0,0,1,.01-.031h.126l.04-.12A.017.017,0,0,1,23.131,18.35Z" transform="translate(-18.495 -18.157)" fill="#f5f5f5"/><path d="M16.861,20.716l.032.1h.1a.014.014,0,0,1,.008.025l-.081.06.03.1a.014.014,0,0,1-.021.015l-.082-.059-.082.059a.014.014,0,0,1-.021-.015l.03-.1-.081-.06a.014.014,0,0,1,.008-.025h.1l.032-.1A.014.014,0,0,1,16.861,20.716Z" transform="translate(-15.933 -19.132)" fill="#f5f5f5"/><path d="M17.627,23.007l.048.145h.153a.021.021,0,0,1,.012.037l-.123.091.046.146a.021.021,0,0,1-.032.023l-.124-.089-.124.089a.021.021,0,0,1-.032-.023l.046-.146-.123-.091a.021.021,0,0,1,.012-.037h.153l.048-.145A.021.021,0,0,1,17.627,23.007Z" transform="translate(-16.212 -20.072)" fill="#f5f5f5"/><path d="M24.076,24.219l.03.091h.1a.013.013,0,0,1,.008.023l-.077.057.029.092a.013.013,0,0,1-.02.014l-.078-.056-.078.056a.013.013,0,0,1-.02-.014l.029-.092-.077-.057a.013.013,0,0,1,.008-.023h.1l.03-.091A.013.013,0,0,1,24.076,24.219Z" transform="translate(-18.905 -20.573)" fill="#f5f5f5"/><path d="M24.616,23.033l.039.117h.124a.017.017,0,0,1,.01.03l-.1.073.037.118a.017.017,0,0,1-.026.019l-.1-.072-.1.072a.017.017,0,0,1-.026-.019l.037-.118-.1-.073a.017.017,0,0,1,.01-.03h.124l.039-.117A.017.017,0,0,1,24.616,23.033Z" transform="translate(-19.108 -20.084)" fill="#f5f5f5"/></g></g></g></svg>