<svg xmlns="http://www.w3.org/2000/svg" xmlns:xlink="http://www.w3.org/1999/xlink" width="88" height="88" viewBox="0 0 88 88">
  <defs>
    <clipPath id="clip-path">
      <circle id="Elipse_1" data-name="Elipse 1" cx="44" cy="44" r="44" transform="translate(143.5 60)" fill="#fff"/>
    </clipPath>
  </defs>
  <g id="Icon-person" transform="translate(-143.5 -60)" clip-path="url(#clip-path)">
    <g id="idea" transform="translate(145.06 60)">
      <path id="Caminho_1" data-name="Caminho 1" d="M30.284,60.494a1.357,1.357,0,0,1-1.357-1.357V49.794a1.357,1.357,0,0,1,2.714,0v9.343A1.357,1.357,0,0,1,30.284,60.494Zm0,0" fill="#f4af9d"/>
      <path id="Caminho_2" data-name="Caminho 2" d="M82.794,78.035V88H36.607l2.5-9.965a7.751,7.751,0,0,1,7.751-7.752H75.042a7.752,7.752,0,0,1,7.752,7.752Zm0,0" fill="#3b485b"/>
      <path id="Caminho_3" data-name="Caminho 3" d="M82.794,78.035V88H41.76V78.035a7.752,7.752,0,0,1,7.752-7.752H75.042a7.752,7.752,0,0,1,7.752,7.752Zm0,0" fill="#515f75"/>
      <path id="Caminho_4" data-name="Caminho 4" d="M47.073,70.284,46.6,82.205l5.011,1.253-4.5,4.5H74.783l-4.5-4.5L75.3,82.205l-.471-11.921" fill="#3b485b"/>
      <path id="Caminho_5" data-name="Caminho 5" d="M70.5,70.284,65.455,88H56.444L51.4,70.284" fill="#f2f2f2"/>
      <path id="Caminho_6" data-name="Caminho 6" d="M54.775,74.633l6.174,7.728,6.113-7.7L60.949,73.52Z" fill="#f74866"/>
      <path id="Caminho_7" data-name="Caminho 7" d="M54.233,80.237l6.717-6.717,6.717,6.717L70.5,70.284H51.4Zm0,0" fill="#e6e6e6"/>
      <path id="Caminho_8" data-name="Caminho 8" d="M66.692,60.332v9.953L60.949,73.52l-1.774-1-3.969-2.236v-9.96l3.969,0Zm0,0" fill="#f9c2af"/>
      <path id="Caminho_9" data-name="Caminho 9" d="M56.475,88l4.474-5.638L65.455,88" fill="#f74866"/>
      <path id="Caminho_10" data-name="Caminho 10" d="M59.175,60.327l-3.969,0v9.96l3.969,2.236V67.915c.586.058,1.18.091,1.782.091a18,18,0,0,0,5.735-.931V60.331Zm0,0" fill="#ea9e8f"/>
      <path id="Caminho_11" data-name="Caminho 11" d="M42.931,49.852a5.154,5.154,0,0,1-5.414-4.847,5.154,5.154,0,0,1,5.414-4.847H78.984A5.154,5.154,0,0,1,84.4,45.005a5.154,5.154,0,0,1-5.414,4.847" fill="#ea9e8f"/>
      <path id="Caminho_12" data-name="Caminho 12" d="M78.985,29.552V47.579a18.027,18.027,0,0,1-36.054,0V29.552Zm0,0" fill="#f9c2af"/>
      <path id="Caminho_13" data-name="Caminho 13" d="M60.83,65.6a18.025,18.025,0,0,1-17.9-18.025V29.552h8.116V47.578a27.007,27.007,0,0,0,2.9,12.747C55.715,63.537,58.143,65.541,60.83,65.6Zm0,0" fill="#ea9e8f"/>
      <path id="Caminho_14" data-name="Caminho 14" d="M67.37,47.383a1.2,1.2,0,0,1-1.2-1.2v-2.5a1.2,1.2,0,1,1,2.391,0v2.5A1.2,1.2,0,0,1,67.37,47.383Zm0,0" fill="#293544"/>
      <path id="Caminho_15" data-name="Caminho 15" d="M54.545,47.383a1.2,1.2,0,0,1-1.2-1.2v-2.5a1.2,1.2,0,0,1,2.391,0v2.5A1.2,1.2,0,0,1,54.545,47.383Zm0,0" fill="#293544"/>
      <path id="Caminho_16" data-name="Caminho 16" d="M78.985,29.552v4.517a18.283,18.283,0,0,1-4.469,2.294,28.546,28.546,0,0,1-17.327.314s0,0,0,0A30.331,30.331,0,0,1,50.8,34.16s-1.644,7.912-7.87,7.912V29.552Zm0,0" fill="#ea9e8f"/>
      <path id="Caminho_17" data-name="Caminho 17" d="M74.516,34.45a28.549,28.549,0,0,1-17.328.315,0,0,0,0,1,0,0A30.377,30.377,0,0,1,50.8,32.247s-1.644,7.912-7.871,7.912c0,0-4.142-7.328-4.012-14.107a6.261,6.261,0,0,1,8.133-5.859,11.475,11.475,0,0,1,11.474-7.43c.786.048,1.577.111,2.371.183l.457.041.047,0c8.239.773,16.584,2.28,21.487-3.145,0,0,8.1,18.669-8.372,24.6Zm0,0" fill="#515f75"/>
      <path id="Caminho_18" data-name="Caminho 18" d="M58.526,12.763c.786.048,1.577.111,2.371.183-7.269-.307-13.045,15.7-3.71,21.818A30.4,30.4,0,0,1,50.8,32.247s-1.644,7.912-7.871,7.912c0,0-4.142-7.327-4.012-14.107a6.261,6.261,0,0,1,8.133-5.859,11.475,11.475,0,0,1,11.474-7.43Zm0,0" fill="#3b485b"/>
      <path id="Caminho_19" data-name="Caminho 19" d="M61.4,12.993l-.05-.006.047,0Zm0,0" fill="#f4af9d"/>
      <path id="Caminho_20" data-name="Caminho 20" d="M60.957,56.961a7.425,7.425,0,0,1-5.268-2.179,1.2,1.2,0,1,1,1.691-1.691,5.064,5.064,0,0,0,7.154,0,1.2,1.2,0,0,1,1.691,1.691,7.426,7.426,0,0,1-5.268,2.179Zm0,0" fill="#e06e86"/>
      <path id="Caminho_21" data-name="Caminho 21" d="M39.1,59.138v8.481H28.927V59.138a1.7,1.7,0,0,1,1.7-1.7h6.786a1.7,1.7,0,0,1,1.7,1.7Zm0,0" fill="#f4af9d"/>
      <path id="Caminho_22" data-name="Caminho 22" d="M39.1,59.138v8.481H33.028V59.138a1.694,1.694,0,0,1,1.7-1.7h2.684a1.7,1.7,0,0,1,1.7,1.7Zm0,0" fill="#f9c2af"/>
      <path id="Caminho_23" data-name="Caminho 23" d="M28.927,67.618H39.1V87.951H28.927Zm0,0" fill="#515f75"/>
      <path id="Caminho_24" data-name="Caminho 24" d="M28.927,67.618H33V87.951H28.927Zm0,0" fill="#3b485b"/>
      <path id="Caminho_25" data-name="Caminho 25" d="M29.016,28.809v8.309a4.83,4.83,0,0,1-4.3,4.8,4.7,4.7,0,0,1-.536.031H20.669a4.833,4.833,0,0,1-4.834-4.832V28.809Zm0,0" fill="#3b485b"/>
      <path id="Caminho_26" data-name="Caminho 26" d="M29.016,28.809v8.309a4.83,4.83,0,0,1-4.3,4.8,4.831,4.831,0,0,1-4.3-4.8V28.809Zm0,0" fill="#515f75"/>
      <path id="Caminho_27" data-name="Caminho 27" d="M35.05,22.424A12.619,12.619,0,0,1,29.015,33.2H15.834A12.628,12.628,0,1,1,35.051,22.424Zm0,0" fill="#eaad18"/>
      <g id="Grupo_1" data-name="Grupo 1">
        <path id="Caminho_28" data-name="Caminho 28" d="M35.051,22.424A12.619,12.619,0,0,1,29.016,33.2H22.509a12.629,12.629,0,0,1,3.254-22.952,12.63,12.63,0,0,1,9.288,12.18Zm0,0" fill="#ffc627"/>
        <path id="Caminho_29" data-name="Caminho 29" d="M5.141,23.781H1.357a1.357,1.357,0,1,1,0-2.713H5.141a1.357,1.357,0,1,1,0,2.713Zm0,0" fill="#ffc627"/>
        <path id="Caminho_30" data-name="Caminho 30" d="M37.394,15.14a1.357,1.357,0,0,1-.68-2.532l3.277-1.892a1.357,1.357,0,1,1,1.357,2.35l-3.277,1.892a1.348,1.348,0,0,1-.677.182Zm0,0" fill="#ffc627"/>
        <path id="Caminho_31" data-name="Caminho 31" d="M4.181,34.315A1.357,1.357,0,0,1,3.5,31.783l3.277-1.892a1.357,1.357,0,0,1,1.357,2.35L4.858,34.133a1.351,1.351,0,0,1-.677.182Zm0,0" fill="#ffc627"/>
        <path id="Caminho_32" data-name="Caminho 32" d="M31.065,8.813a1.357,1.357,0,0,1-1.174-2.035L31.783,3.5a1.357,1.357,0,1,1,2.35,1.357L32.241,8.135a1.355,1.355,0,0,1-1.176.678Zm0,0" fill="#ffc627"/>
        <path id="Caminho_33" data-name="Caminho 33" d="M22.424,6.5a1.356,1.356,0,0,1-1.356-1.357V1.357a1.357,1.357,0,1,1,2.713,0V5.141A1.356,1.356,0,0,1,22.424,6.5Zm0,0" fill="#ffc627"/>
        <path id="Caminho_34" data-name="Caminho 34" d="M13.784,8.813a1.355,1.355,0,0,1-1.176-.678L10.716,4.858A1.357,1.357,0,1,1,13.066,3.5l1.892,3.277a1.357,1.357,0,0,1-1.174,2.035Zm0,0" fill="#ffc627"/>
        <path id="Caminho_35" data-name="Caminho 35" d="M7.455,15.14a1.348,1.348,0,0,1-.677-.182L3.5,13.066a1.357,1.357,0,1,1,1.357-2.35l3.277,1.892a1.357,1.357,0,0,1-.68,2.532Zm0,0" fill="#ffc627"/>
        <path id="Caminho_36" data-name="Caminho 36" d="M43.492,23.781H39.709a1.357,1.357,0,1,1,0-2.713h3.784a1.357,1.357,0,1,1,0,2.713Zm0,0" fill="#ffc627"/>
        <path id="Caminho_37" data-name="Caminho 37" d="M40.669,34.315a1.351,1.351,0,0,1-.677-.182l-3.277-1.892a1.357,1.357,0,0,1,1.357-2.35l3.277,1.892a1.357,1.357,0,0,1-.679,2.532Zm0,0" fill="#ffc627"/>
      </g>
      <path id="Caminho_38" data-name="Caminho 38" d="M26.666,23.957V33.2H23.952V23.957a1.357,1.357,0,1,1,2.714,0Zm0,0" fill="#fff"/>
      <path id="Caminho_39" data-name="Caminho 39" d="M20.9,23.957V33.2H18.182V23.957a1.357,1.357,0,1,1,2.714,0Zm0,0" fill="#fff"/>
    </g>
  </g>
</svg>
