<svg xmlns="http://www.w3.org/2000/svg" xmlns:xlink="http://www.w3.org/1999/xlink" width="25" height="25" viewBox="0 0 25 25"><defs><clipPath id="a"><rect width="25" height="25" transform="translate(70 260)" fill="#fff" stroke="#707070" stroke-width="1"/></clipPath></defs><g transform="translate(-70 -260)" clip-path="url(#a)"><g transform="translate(70 260)"><path d="M12.5,0A8.791,8.791,0,0,0,5.023,13.411L12,24.654a.732.732,0,0,0,.622.346h.006a.732.732,0,0,0,.623-.356l6.8-11.352A8.791,8.791,0,0,0,12.5,0Zm6.292,12.54L12.611,22.861,6.268,12.639a7.329,7.329,0,1,1,12.524-.1Z"/><path d="M12.5,4.395a4.395,4.395,0,1,0,4.395,4.395A4.4,4.4,0,0,0,12.5,4.395Zm0,7.334a2.939,2.939,0,1,1,2.935-2.939A2.942,2.942,0,0,1,12.5,11.729Z"/></g></g></svg>